# xmcd CD database file
#
# Track frame offsets:
#	150
#	17090
#	53850
#	70055
#	107572
#	125170
#	160827
#	178212
#	213277
#	227717
#	265590
#	283450
#
# Disc length: 4236 seconds
#
# Revision: 0
# Processed by: cddbd v1.5.1PL2 Copyright (c) Steve Scherf et al.
# Submitted via: CDex 1.51
#
DISCID=af108a0c
DTITLE=VariousArtist - 全日本吹奏楽2001金賞団体の競演 Disc5
DYEAR=2001
DGENRE=Classical
TTITLE0=課題曲I：式典のための行進曲「栄光をたたえて」/内藤淳一/文教大学吹奏楽部(指揮：佐川聖二)
TTITLE1=交響曲第5番「ハイドリオタフィア」より/W.オルウィン(arr.瀬尾宗利)/文教大学吹奏楽部(指揮：佐川聖二)
TTITLE2=課題曲III：あの丘をこえて/星谷丈生/札幌大学吹奏楽団(指揮：今井敏勝)
TTITLE3=組曲「馬あぶ」より/ドミートリィ・ショスタコーヴィチ(arr.木村吉宏)/札幌大学吹奏楽団(指揮：今井敏勝)
TTITLE4=課題曲II：平和への行列/戸田顕/神奈川大学吹奏楽部(指揮：小澤俊朗)
TTITLE5=…そしてどこにも山の姿はない/ジョセフ・シュワントナー/神奈川大学吹奏楽部(指揮：小澤俊朗)
TTITLE6=課題曲I：式典のための行進曲「栄光をたたえて」/内藤淳一)
TTITLE7=「交響曲第５番」より第3楽章、第4楽章/マルコム・アーノルド(arr.瀬尾宗利)/創価大学パイオニア吹奏楽団(指揮：佐川聖二)
TTITLE8=課題曲IV：行進曲「SLが行く」/若杉海一/ブリヂストン吹奏楽団久留米(指揮：小野照三)
TTITLE9=ブラスオーケストラのための「行列幻想」/團伊玖磨(arr.時松敏康)/ブリヂストン吹奏楽団久留米(指揮：小野照三)
TTITLE10=課題曲II：平和への行列/戸田顕/ＮＴＴ西日本中国吹奏楽クラブ(指揮：金田康孝)
TTITLE11=セント・アンソニー・ヴァリエーション/ウィリアム・H・ヒル/ＮＴＴ西日本中国吹奏楽クラブ(指揮：金田康孝)
EXTD=YEAR: 2001
EXTT0=
EXTT1=
EXTT2=
EXTT3=
EXTT4=
EXTT5=
EXTT6=
EXTT7=
EXTT8=
EXTT9=
EXTT10=
EXTT11=
PLAYORDER=
